<?xml version="1.0" encoding="iso-8859-1"?>
<!-- Uploaded to: SVG Repo, www.svgrepo.com, Generator: SVG Repo Mixer Tools -->
<svg fill="#000000" height="800px" width="800px" version="1.1" id="Layer_1" xmlns="http://www.w3.org/2000/svg" xmlns:xlink="http://www.w3.org/1999/xlink" 
	 viewBox="0 0 495.558 495.558" xml:space="preserve">
<g>
	<g>
		<path d="M492.538,242.716c-3.702-6.173-92.288-151.327-244.76-151.327c-152.476,0-241.063,145.154-244.76,151.327L0,247.774
			l3.019,5.058c3.697,6.173,92.284,151.337,244.76,151.337c152.471,0,241.058-145.164,244.76-151.337l3.019-5.058L492.538,242.716z
			 M247.779,384.476c-125.769,0-207.625-111.394-224.587-136.702c16.962-25.298,98.817-136.692,224.587-136.692
			s207.625,111.394,224.587,136.692C455.404,273.082,373.548,384.476,247.779,384.476z"/>
	</g>
</g>
<g>
	<g>
		<path d="M247.779,140.505c-59.149,0-107.274,48.125-107.274,107.269c0,59.154,48.125,107.279,107.274,107.279
			c59.154,0,107.279-48.125,107.279-107.279C355.058,188.63,306.933,140.505,247.779,140.505z M247.779,335.361
			c-48.293,0-87.582-39.288-87.582-87.587c0-48.288,39.288-87.577,87.582-87.577c48.298,0,87.587,39.288,87.587,87.577
			C335.365,296.072,296.077,335.361,247.779,335.361z"/>
	</g>
</g>
<g>
	<g>
		<path d="M247.779,207.438c-22.24,0-40.337,18.096-40.337,40.336c0,22.24,18.096,40.337,40.337,40.337
			c22.24,0,40.337-18.096,40.337-40.337C288.115,225.534,270.019,207.438,247.779,207.438z M247.779,268.418
			c-11.385,0-20.644-9.26-20.644-20.644c0-11.385,9.26-20.644,20.644-20.644c11.385,0,20.644,9.26,20.644,20.644
			C268.423,259.159,259.163,268.418,247.779,268.418z"/>
	</g>
</g>
</svg>