<svg width="128" height="128" viewBox="0 0 128 128" fill="none" xmlns="http://www.w3.org/2000/svg">
<path d="M88.3254 49.4533C88.67 48.5125 89.2915 47.6981 90.1079 47.1173C90.9243 46.5365 91.8975 46.2166 92.8993 46.1996H124.167C124.707 46.1794 125.245 46.278 125.743 46.4885C126.241 46.6989 126.687 47.0161 127.049 47.4177C127.411 47.8192 127.681 48.2953 127.839 48.8124C127.997 49.3295 128.039 49.8749 127.963 50.4103L119.886 118.183C119.714 119.337 119.138 120.392 118.26 121.16C117.382 121.928 116.259 122.358 115.093 122.374H15.8809C15.3424 122.395 14.806 122.297 14.3094 122.088C13.8128 121.879 13.3681 121.563 13.0065 121.164C12.6449 120.764 12.3753 120.29 12.2167 119.775C12.058 119.26 12.0142 118.717 12.0882 118.183L18.8612 61.2416C19.0326 60.0878 19.6089 59.0327 20.4869 58.2648C21.365 57.497 22.4875 57.0665 23.6538 57.0505H77.6425C79.9819 57.0106 82.2545 56.2635 84.1613 54.9075C86.0681 53.5514 87.5198 51.65 88.3254 49.4533Z" fill="#0164BC"/>
<path d="M13.8733 119.253H117.542L123.448 49.5001H19.7831L13.8733 119.253Z" fill="#F0F0F0"/>
<path d="M13.8733 119.253H117.542L121.815 49.5001H19.7831L13.8733 119.253Z" fill="#E0E0E0"/>
<path d="M13.8733 119.253H117.542L121.105 47.2854H17.4395L13.8733 119.253Z" fill="#F0F0F0"/>
<path d="M13.8733 119.253H117.542L118.952 47.2854H17.4395L13.8733 119.253Z" fill="#E0E0E0"/>
<path d="M13.8733 119.253H117.542L118.159 45.3324H14.4943L13.8733 119.253Z" fill="#F0F0F0"/>
<path d="M13.8732 119.253H117.542L115.413 46.7308H12.4163L13.8732 119.253Z" fill="#E0E0E0"/>
<path d="M13.8733 119.253H117.542L114.464 47.2854H10.7993L13.8733 119.253Z" fill="#F0F0F0"/>
<path d="M13.8735 119.253H117.542L112.64 48.3712H8.97534L13.8735 119.253Z" fill="#E0E0E0"/>
<path d="M13.8734 119.253H117.542L111.859 48.9767H8.19409L13.8734 119.253Z" fill="#F0F0F0"/>
<path d="M65.7879 53.8553C65.7937 53.4021 65.8906 52.9547 66.0729 52.5398C66.2552 52.1248 66.5191 51.7508 66.8489 51.4399C67.1787 51.129 67.5677 50.8877 67.9927 50.7303C68.4177 50.5728 68.8701 50.5025 69.3228 50.5235H100.59C101.801 50.57 102.962 51.0172 103.891 51.7948C104.82 52.5725 105.464 53.6366 105.723 54.8201L118.077 118.097C118.538 120.468 116.992 122.394 114.621 122.394H15.4084C13.0335 122.394 10.7212 120.468 10.272 118.097L0.081246 65.9327C-0.379661 63.5617 1.16711 61.6361 3.53805 61.6361H57.5306C62.2178 61.6361 65.6277 58.4097 65.7879 53.8553Z" fill="#0164BC"/>
<path opacity="0.2" d="M65.7879 53.8553C65.7937 53.4021 65.8906 52.9547 66.0729 52.5398C66.2552 52.1248 66.5191 51.7508 66.8489 51.4399C67.1787 51.129 67.5677 50.8877 67.9927 50.7303C68.4177 50.5728 68.8701 50.5025 69.3228 50.5235H100.59C101.801 50.57 102.962 51.0172 103.891 51.7948C104.82 52.5725 105.464 53.6366 105.723 54.8201L118.077 118.097C118.538 120.468 116.992 122.394 114.621 122.394H15.4084C13.0335 122.394 10.7212 120.468 10.272 118.097L0.081246 65.9327C-0.379661 63.5617 1.16711 61.6361 3.53805 61.6361H57.5306C62.2178 61.6361 65.6277 58.4097 65.7879 53.8553Z" fill="black"/>
<path opacity="0.2" d="M64.9078 76.6417C58.2902 79.2126 51.0589 79.7635 44.1282 78.2247C37.1976 76.6859 30.8788 73.1265 25.9711 67.9966C21.0633 62.8667 17.7869 56.3967 16.5562 49.4047C15.3255 42.4128 16.1957 35.2129 19.0569 28.7155C21.918 22.2181 26.6415 16.7151 32.6302 12.9022C38.6188 9.08934 45.6036 7.13789 52.7013 7.29464C59.7991 7.45139 66.6909 9.70929 72.5054 13.7828C78.3199 17.8564 82.7959 23.5626 85.3674 30.1799C87.0755 34.574 87.9012 39.2615 87.7973 43.9747C87.6935 48.6879 86.6622 53.3345 84.7622 57.6491C82.8623 61.9637 80.131 65.8617 76.7243 69.1205C73.3176 72.3793 69.3024 74.935 64.9078 76.6417Z" fill="#0164BC"/>
<path opacity="0.1" d="M58.4119 7.88065L30.2575 71.8218C29.8239 71.4937 29.3943 71.1539 28.9724 70.8101C26.2513 68.559 23.8815 65.9141 21.9417 62.963L46.2604 7.73223C50.2893 7.08331 54.4 7.13352 58.4119 7.88065Z" fill="white"/>
<path opacity="0.1" d="M78.4262 18.9736L51.9553 79.0908C46.4569 79.0967 41.0309 77.8377 36.0969 75.4114L65.0013 9.76331C70.1219 11.7659 74.7148 14.9169 78.4262 18.9736Z" fill="white"/>
<path d="M22.3557 19.001C27.1389 13.1565 33.5477 8.86159 40.7717 6.65941C47.9958 4.45724 55.7106 4.44669 62.9407 6.6291C70.1707 8.81152 76.5913 13.0889 81.3904 18.9203C86.1895 24.7517 89.1516 31.8752 89.9021 39.3901C90.6527 46.905 89.158 54.4736 85.607 61.139C82.0561 67.8044 76.6084 73.2671 69.9528 76.8364C63.2972 80.4057 55.7326 81.9212 48.2157 81.1912C40.6988 80.4613 33.5672 77.5188 27.7226 72.7358C19.8861 66.3212 14.9183 57.0567 13.9118 46.9797C12.9054 36.9028 15.9427 26.8387 22.3557 19.001ZM79.0395 65.3886C83.4301 60.0217 86.1306 53.4734 86.7997 46.5717C87.4687 39.67 86.0762 32.725 82.7983 26.6147C79.5203 20.5044 74.5041 15.5033 68.384 12.2438C62.2638 8.98429 55.3146 7.61274 48.415 8.3026C41.5153 8.99245 34.9752 11.7127 29.6216 16.1194C24.2679 20.5261 20.3412 26.4214 18.3379 33.0597C16.3346 39.698 16.3447 46.7813 18.367 53.4139C20.3892 60.0465 24.3328 65.9305 29.699 70.3219C33.2625 73.238 37.3656 75.4237 41.7739 76.754C46.1822 78.0843 50.8093 78.5332 55.3911 78.0751C59.9729 77.617 64.4196 76.2609 68.4772 74.0841C72.5348 71.9073 76.1239 68.9526 79.0395 65.3886Z" fill="#FBA627"/>
<path d="M82.4105 65.2557C86.172 67.5017 89.7499 69.9703 93.2653 72.517C96.7807 75.0637 100.206 77.7159 103.577 80.4383C106.948 83.1608 110.256 85.9614 113.448 88.9026C115.046 90.3713 116.609 91.879 118.135 93.4258C119.666 94.9882 121.17 96.5506 122.588 98.2458C122.915 98.6383 123.096 99.1326 123.098 99.6438C123.101 100.155 122.925 100.651 122.602 101.047C122.278 101.443 121.827 101.713 121.325 101.812C120.824 101.911 120.303 101.832 119.853 101.589C117.9 100.535 116.072 99.3707 114.248 98.1794C112.424 96.988 110.643 95.7459 108.885 94.4687C105.37 91.922 101.968 89.2385 98.6361 86.4692C95.3042 83.6998 92.0232 80.868 88.832 77.9229C85.6408 74.9778 82.5121 71.9623 79.567 68.7204C79.1992 68.3194 78.9884 67.7993 78.9731 67.2554C78.9578 66.7115 79.139 66.1804 79.4836 65.7593C79.8283 65.3383 80.3131 65.0556 80.8493 64.9631C81.3854 64.8706 81.937 64.9745 82.4027 65.2557H82.4105Z" fill="#FBA627"/>
</svg>
