<svg width="24" height="24" viewBox="0 0 24 24" fill="none" xmlns="http://www.w3.org/2000/svg">
<path d="M7.79453 16.7024L8.49122 15.9997L4.80164 12.2785L4.80303 12.2771L3.42024 10.8824L2 12.2906L6.37428 16.7024C6.56206 16.8918 6.81771 16.9983 7.08441 16.9983C7.35111 16.9983 7.60676 16.8918 7.79453 16.7024Z" fill="#0164BC"/>
<path d="M16.5807 5L17.9996 6.40676L12.7144 11.7374L11.3076 10.3185L16.5807 5Z" fill="#0164BC"/>
<path d="M13.4245 16.7024L23.631 6.40814L22.2107 5L12.7144 14.578L9.05025 10.8824L7.63 12.2906L12.0043 16.7024C12.1921 16.8918 12.4477 16.9983 12.7144 16.9983C12.9811 16.9983 13.2368 16.8918 13.4245 16.7024Z" fill="#0164BC"/>
</svg>
