<svg width="24" height="24" viewBox="0 0 24 24" fill="none" xmlns="http://www.w3.org/2000/svg">
<path d="M6.25015 2C5.0164 2 4.00015 3.01625 4.00015 4.25V18.627C3.98693 18.7075 3.98693 18.7896 4.00015 18.8701V19.75C4.00015 20.9838 5.0164 22 6.25015 22H19.7502C19.8495 22.0014 19.9482 21.983 20.0404 21.946C20.1327 21.9089 20.2166 21.8539 20.2874 21.7841C20.3582 21.7143 20.4144 21.6312 20.4527 21.5395C20.4911 21.4478 20.5108 21.3494 20.5108 21.25C20.5108 21.1506 20.4911 21.0522 20.4527 20.9605C20.4144 20.8688 20.3582 20.7857 20.2874 20.7159C20.2166 20.6461 20.1327 20.5911 20.0404 20.554C19.9482 20.517 19.8495 20.4986 19.7502 20.5H6.25015C5.8269 20.5 5.50015 20.1733 5.50015 19.75V19.5H19.7502C19.9491 19.5 20.1398 19.421 20.2805 19.2803C20.4211 19.1397 20.5001 18.9489 20.5002 18.75V4.25C20.5002 3.01625 19.4839 2 18.2502 2H6.25015ZM6.25015 3.5H18.2502C18.6734 3.5 19.0002 3.82675 19.0002 4.25V18H5.50015V4.25C5.50015 3.82675 5.8269 3.5 6.25015 3.5ZM12.1222 5.00195C9.34863 5.00313 7.00431 7.38245 7.00211 10.499C6.99985 13.6079 9.32701 16 12.2502 16H15.2502C15.3495 16.0014 15.4482 15.983 15.5404 15.946C15.6327 15.9089 15.7166 15.8539 15.7874 15.7841C15.8582 15.7143 15.9144 15.6312 15.9527 15.5395C15.9911 15.4478 16.0108 15.3494 16.0108 15.25C16.0108 15.1506 15.9911 15.0522 15.9527 14.9605C15.9144 14.8688 15.8582 14.7857 15.7874 14.7159C15.7166 14.6461 15.6327 14.5911 15.5404 14.554C15.4482 14.517 15.3495 14.4986 15.2502 14.5H12.2502C10.1183 14.5 8.50037 12.8921 8.50211 10.501V10.5C8.50341 8.11707 10.1991 6.50277 12.1232 6.50195C13.5292 6.50105 14.4534 6.92292 15.0646 7.56836C15.6758 8.21383 16.0002 9.13462 16.0002 10.25V10.75C16.0002 11.1732 15.6734 11.5 15.2502 11.5C14.8269 11.5 14.5002 11.1732 14.5002 10.75V8.75C14.5023 8.59908 14.459 8.45101 14.3757 8.32515C14.2923 8.19928 14.173 8.10148 14.0332 8.04451C13.8935 7.98755 13.7398 7.97408 13.5922 8.00586C13.4447 8.03764 13.3101 8.1132 13.2062 8.22266C12.9202 8.08327 12.5957 8 12.2502 8C11.5314 8 10.9002 8.35488 10.5285 8.84277C10.1567 9.33067 10.0002 9.91964 10.0002 10.5C10.0002 11.0804 10.1567 11.6693 10.5285 12.1572C10.9002 12.6451 11.5314 13 12.2502 13C12.8392 13 13.3665 12.7599 13.7433 12.4053C14.144 12.7707 14.6708 13 15.2502 13C16.4839 13 17.5002 11.9838 17.5002 10.75V10.25C17.5002 8.83788 17.0741 7.50929 16.1535 6.53711C15.2328 5.56493 13.8437 5.00085 12.1222 5.00195ZM12.2502 9.5C12.5314 9.5 12.6502 9.58262 12.7785 9.75098C12.9067 9.91933 13.0002 10.2054 13.0002 10.5C13.0002 10.7946 12.9067 11.0807 12.7785 11.249C12.6502 11.4174 12.5314 11.5 12.2502 11.5C11.9689 11.5 11.8501 11.4174 11.7218 11.249C11.5936 11.0807 11.5002 10.7946 11.5002 10.5C11.5002 10.2054 11.5936 9.91933 11.7218 9.75098C11.8501 9.58262 11.9689 9.5 12.2502 9.5Z" fill="#0164BC"/>
</svg>
