<svg width="18" height="18" viewBox="0 0 18 18" fill="none" xmlns="http://www.w3.org/2000/svg">
<g clip-path="url(#clip0_23435_10359)">
<path d="M8.25 3.75V9.75H12.75V8.25H9.75V3.75H8.25Z" fill="#0164BC"/>
<path d="M17.25 9C17.25 13.5563 13.5563 17.25 9 17.25C4.44365 17.25 0.75 13.5563 0.75 9C0.75 4.44365 4.44365 0.75 9 0.75C13.5563 0.75 17.25 4.44365 17.25 9ZM15.75 9C15.75 5.27208 12.7279 2.25 9 2.25C5.27208 2.25 2.25 5.27208 2.25 9C2.25 12.7279 5.27208 15.75 9 15.75C12.7279 15.75 15.75 12.7279 15.75 9Z" fill="#0164BC"/>
</g>
<defs>
<clipPath id="clip0_23435_10359">
<rect width="18" height="18" fill="white"/>
</clipPath>
</defs>
</svg>
