<svg width="16" height="16" viewBox="0 0 16 16" fill="none" xmlns="http://www.w3.org/2000/svg">
<path fill-rule="evenodd" clip-rule="evenodd" d="M7.9987 14.666C11.6806 14.666 14.6654 11.6812 14.6654 7.99935C14.6654 4.31745 11.6806 1.33268 7.9987 1.33268C4.3168 1.33268 1.33203 4.31745 1.33203 7.99935C1.33203 11.6812 4.3168 14.666 7.9987 14.666ZM4.66536 7.99935C4.66536 7.63116 4.96384 7.33268 5.33203 7.33268C5.70022 7.33268 5.9987 7.63116 5.9987 7.99935C5.9987 8.36754 5.70022 8.66602 5.33203 8.66602C4.96384 8.66602 4.66536 8.36754 4.66536 7.99935ZM6.66536 9.33268L6.66536 7.33268L11.332 7.33268L11.332 8.66602L7.9987 8.66602L7.9987 9.33268L6.66536 9.33268Z" fill="#0164BC"/>
</svg>
