<svg width="45" height="46" viewBox="0 0 45 46" fill="none" xmlns="http://www.w3.org/2000/svg">
<path d="M22.5 4.25C12.1669 4.25 3.75 12.6669 3.75 23C3.75 33.3331 12.1669 41.75 22.5 41.75C32.8331 41.75 41.25 33.3331 41.25 23C41.25 12.6669 32.8331 4.25 22.5 4.25ZM22.5 8C30.8065 8 37.5 14.6935 37.5 23C37.5 31.3065 30.8065 38 22.5 38C14.1935 38 7.5 31.3065 7.5 23C7.5 14.6935 14.1935 8 22.5 8ZM30.5493 16.0493L18.75 27.8486L14.4507 23.5493L11.7993 26.2007L18.75 33.1514L33.2007 18.7007L30.5493 16.0493Z" fill="#41A447"/>
</svg>
