<svg width="141" height="141" viewBox="0 0 141 141" fill="none" xmlns="http://www.w3.org/2000/svg">
<path d="M54.0637 27.1562C53.9517 27.3522 51.5157 37.4602 48.6597 49.6402L43.4797 71.7602L40.7077 72.4042C39.1677 72.7402 37.7397 73.1882 37.5437 73.3282C37.2077 73.6082 37.2357 74.0842 37.6277 75.5682C37.7117 75.8762 37.2917 76.3802 36.3397 77.0802L34.9397 78.1162V95.8122C34.9397 109.196 35.0237 113.592 35.2757 113.844C35.7517 114.32 92.9277 114.32 93.4037 113.844C93.6557 113.592 93.7397 110.764 93.7397 102.868V92.2002L101.804 100.236C106.228 104.66 110.204 108.412 110.624 108.58C114.096 109.868 117.736 105.976 116.028 102.756C115.356 101.496 95.5317 81.8682 95.2797 82.2602C94.9997 82.7082 93.7397 81.5042 93.7397 80.8042C93.7397 80.5242 94.1037 79.5442 94.5517 78.6482C96.9877 73.8602 96.9877 67.4482 94.5797 62.6882L93.7957 61.1202L95.4477 54.1202C96.3437 50.2562 97.0997 46.8122 97.0997 46.4762C97.0997 46.0002 91.3037 36.1442 90.5197 35.2762C90.4357 35.1922 54.7917 26.8202 54.4837 26.8202C54.3717 26.8202 54.2037 26.9882 54.0637 27.1562ZM72.1237 31.8322C81.2517 33.9602 88.7557 35.7522 88.8397 35.8082C88.8957 35.8642 88.3917 37.7962 87.6917 40.1202C86.3757 44.6002 86.2637 45.1602 86.7957 45.4682C86.9917 45.6082 89.0917 46.0282 91.4437 46.4482C93.7957 46.8402 95.8117 47.2602 95.8957 47.3722C96.0357 47.4842 93.9637 57.0042 93.2637 59.4122C93.1517 59.8322 92.9277 59.6922 91.8917 58.5162C89.0357 55.2402 85.0317 53.1682 80.3837 52.5522C79.0397 52.3842 73.3837 51.1802 67.8677 49.8922C62.3237 48.6042 57.6197 47.5402 57.4237 47.5402C57.2277 47.5402 57.0597 47.7082 57.0597 47.9322C57.0597 48.3242 57.2837 48.4082 69.4357 51.2082C72.3477 51.8802 74.6997 52.5242 74.6997 52.6082C74.6997 52.7202 74.2237 52.8602 73.6637 52.9442C73.0757 53.0562 71.5637 53.6162 70.3037 54.2322L68.0357 55.3242L62.0717 53.9522C56.6677 52.6922 54.9037 52.4962 55.9957 53.3362C56.1917 53.4762 58.6837 54.1482 61.5397 54.7922C64.3957 55.4362 66.7477 56.0242 66.8037 56.0522C66.8317 56.1082 66.1037 56.9482 65.1517 57.9002L63.4437 59.6642L59.4957 58.7402C57.3397 58.2362 55.3797 57.8162 55.1277 57.7882C54.3157 57.7322 54.6517 58.5722 55.5197 58.7682C55.9957 58.8802 57.8437 59.3002 59.6357 59.7202L62.9117 60.5042L61.9317 62.4082C61.3997 63.4722 60.8117 64.3402 60.6157 64.3402C60.4477 64.3402 58.9917 64.0322 57.3957 63.6402C54.0917 62.8562 53.4197 62.8002 53.4197 63.3042C53.4197 63.5562 54.5677 63.9482 56.8637 64.4522C58.7397 64.9002 60.3637 65.3202 60.4757 65.4322C60.6157 65.5442 60.5317 66.1882 60.3357 66.8602C59.9997 68.0642 59.9437 68.0922 58.3197 68.4562C56.8637 68.7922 56.3877 68.7922 54.6237 68.4002C52.4677 67.9242 51.5437 68.0642 52.4397 68.7362C52.7477 68.9322 53.2237 69.1002 53.5317 69.1002C54.0077 69.1282 54.0357 69.1562 53.6997 69.3522C53.1677 69.6602 44.7957 71.4802 44.6277 71.3122C44.5717 71.2562 46.7837 61.4562 49.5837 49.5562C53.6157 32.2802 54.7357 27.9402 55.0717 27.9402C55.3237 27.9402 62.9957 29.6762 72.1237 31.8322ZM93.1517 41.1842C94.8597 43.9282 96.2597 46.2242 96.2597 46.2522C96.2597 46.3642 87.5797 44.8242 87.4397 44.7122C87.3837 44.6282 87.7477 43.1722 88.2797 41.4642C88.8117 39.7282 89.3717 37.7962 89.5397 37.1802C89.7077 36.5362 89.9037 36.0602 89.9597 36.0882C90.0157 36.1442 91.4437 38.4402 93.1517 41.1842ZM81.7711 55.6697C93.9865 64.839 91.5303 65.1574 93.0423 71.0934C92.4491 73.4663 92.981 72.3762 92.4491 74.5042C89.8197 79.9917 87.7911 83.3242 81.7711 84.9202C79.7551 85.4522 76.7997 85.4522 74.6997 84.9202C65.1517 79.3985 65.5425 79.0051 63.9745 72.8731C63.4425 70.7451 63.4425 68.9882 63.9745 66.8602C66.8037 61.1202 68.0077 58.3681 74.2237 56.8561C84.7372 55.6697 87.7033 59.229 81.7711 55.6697ZM59.8597 70.2202C59.8597 70.8362 59.7757 71.3402 59.6637 71.3402C58.7397 71.3402 41.7157 75.3722 41.4077 75.6802C41.0997 75.9882 41.1277 76.4642 41.6597 78.7602C41.9957 80.2442 42.2197 81.5322 42.1357 81.6162C42.0517 81.7002 41.4357 81.3642 40.7637 80.8882C39.5597 80.0482 39.5317 79.9642 38.9157 77.0522C38.5517 75.4282 38.3277 74.0282 38.3837 73.9722C38.4677 73.8602 58.8237 69.2402 59.6637 69.1282C59.7757 69.1002 59.8597 69.6042 59.8597 70.2202ZM60.3357 74.5042C60.7557 76.6042 61.5957 78.6762 62.7997 80.5522C63.4157 81.5602 63.4717 81.7562 63.0517 81.5602C62.7437 81.4202 61.9877 81.2802 61.3157 81.1962C60.1677 81.0842 60.0277 81.1682 58.9077 82.3722C58.2357 83.0722 57.3957 84.2202 57.0317 84.9202C56.5557 85.8162 56.2197 86.1242 55.9397 86.0122C54.8757 85.5922 52.6357 85.2562 51.9637 85.4242C51.5437 85.5362 50.8437 85.9562 50.3677 86.3482L49.5277 87.0482L46.6437 85.0322C45.0477 83.9122 43.7317 82.9882 43.7037 82.9602C43.5917 82.9322 42.1637 76.3242 42.2757 76.2682C42.4997 76.0722 58.9357 72.5162 59.4117 72.5442C59.8597 72.6002 60.0277 72.9922 60.3357 74.5042ZM38.1037 77.8362C38.3277 78.6762 38.1597 78.7882 37.2917 78.3682C36.5637 78.0602 36.5637 78.0322 37.0677 77.6402C37.7957 77.0802 37.9357 77.1082 38.1037 77.8362ZM48.7717 87.6922C59.7757 95.5322 61.2317 96.6522 60.7837 96.9602C59.4957 97.8282 36.6197 111.688 36.2277 111.828C35.8357 111.996 35.7797 110.4 35.7797 95.2802C35.7797 86.0962 35.8917 78.6202 36.0037 78.6762C36.1437 78.7042 41.8837 82.7642 48.7717 87.6922ZM63.2757 83.0722C65.1517 84.2762 71.1437 90.4362 70.7517 90.7722C70.6957 90.8282 67.9517 91.4722 64.6757 92.1722L58.6837 93.5162L56.9757 92.3122C56.0237 91.6682 55.2117 91.1082 55.1557 91.0522C54.8757 90.8562 58.4597 84.5562 59.6357 83.2402C60.6997 82.0082 61.5397 81.9802 63.2757 83.0722ZM89.3437 86.6842C89.8477 87.1882 90.0157 87.5522 89.8197 87.7482C89.6517 87.9162 90.1277 88.5882 91.2197 89.6802L92.8997 91.3322V101.664C92.8997 111.38 92.8717 111.996 92.4237 111.8C91.9197 111.632 70.1077 98.4162 68.3157 97.2122L67.3637 96.5962L72.6557 92.8162C77.6677 89.2322 78.0317 89.0362 79.5997 88.8402C82.2317 88.5322 84.4437 87.8882 86.4317 86.8802C87.4397 86.3482 88.3637 85.9282 88.4477 85.9002C88.5317 85.9002 88.9237 86.2642 89.3437 86.6842ZM109.861 106.896C119.773 116.836 93.6837 85.5362 93.1797 85.9002C92.8717 86.1242 104.42 101.046 103.72 101.046L110.708 107.74L100.824 97.8842L110.624 108.58L91.9757 86.9642C127.449 129.822 93.0957 85.9002 93.1797 85.9002C111.664 107.214 104.093 101.128 109.861 106.896ZM54.4277 86.7682C55.0997 86.9362 55.6597 87.1602 55.6597 87.2722C55.6317 87.3562 55.2957 88.0842 54.8757 88.8962L54.1197 90.3242L52.3277 89.0362L50.5357 87.7482L51.2917 87.1042C52.1597 86.3762 52.6357 86.3202 54.4277 86.7682ZM70.3317 87.6642C70.4437 88.1402 70.3317 88.0842 69.6317 87.4122C68.6517 86.4602 68.6237 86.3762 69.4917 86.7682C69.8557 86.9362 70.2477 87.3282 70.3317 87.6642ZM73.1317 88.2522C73.8597 88.5602 74.1117 88.8402 74.2237 89.5682C74.2797 90.1002 74.3357 90.5202 74.3077 90.5482C74.3077 90.5482 72.5437 91.8082 70.4157 93.3202L66.5517 96.0642L65.4317 95.4482L64.3397 94.8322L63.2197 95.4482L62.1277 96.0642L60.9517 95.2522C60.3077 94.8322 59.9157 94.4122 60.0277 94.3842C60.1677 94.3282 62.7997 93.7402 65.8517 93.0682C68.9037 92.3682 71.5917 91.6402 71.8157 91.4162C72.1517 91.0802 72.1797 90.8002 71.9277 89.9322C71.3397 87.8042 71.5077 87.5802 73.1317 88.2522ZM76.3797 88.9242C76.3797 89.0362 76.1277 89.2882 75.8197 89.4842C75.5117 89.6802 75.2597 89.7642 75.2597 89.7082C75.2597 89.6522 75.1757 89.4002 75.0917 89.1482C74.9517 88.8122 75.0917 88.7002 75.6517 88.7002C76.0437 88.7002 76.3797 88.7842 76.3797 88.9242ZM78.3957 104.38C85.9837 109 92.3117 112.92 92.4517 113.06C92.6477 113.256 82.8477 113.34 64.3397 113.34C43.0877 113.34 36.0317 113.256 36.2557 113.032C36.7877 112.5 63.8917 96.0082 64.2557 96.0082C64.4517 95.9802 70.8077 99.7602 78.3957 104.38Z" fill="#0164BC"/>
<path d="M58.1797 42.7516C58.1797 42.9196 58.2917 43.0876 58.4037 43.1716C58.5157 43.2276 65.2077 44.8236 73.2157 46.7276C86.2637 49.7796 89.3997 50.3396 88.5317 49.5276C88.2517 49.2476 59.5797 42.4996 58.7117 42.4996C58.4317 42.4996 58.1797 42.6116 58.1797 42.7516Z" fill="#0164BC"/>
<path d="M76.2114 55.9402C72.7114 56.4722 69.9954 57.9002 67.5874 60.4482C65.7114 62.4082 64.3114 64.9002 63.8074 67.1402C63.4434 68.7642 63.4434 72.5162 63.8074 74.1402C64.8994 78.9002 69.1274 83.3522 73.9154 84.8082C76.4914 85.5922 81.0554 85.4522 83.4074 84.5282C89.9314 82.0082 93.9354 75.2322 92.9274 68.5122C91.7514 60.5882 83.9954 54.7642 76.2114 55.9402ZM81.5594 57.2002C86.7114 58.5442 90.5474 62.5482 91.6394 67.6722C92.3394 71.0882 92.1154 73.3562 90.7714 76.2962C88.0274 82.2882 81.7554 85.5082 75.5114 84.1082C72.5994 83.4642 70.9194 82.5962 68.7914 80.6362C63.1074 75.4002 62.8834 66.7482 68.2594 61.1482C69.1834 60.1682 70.5834 59.0482 71.3674 58.6282C74.4754 56.9202 78.3674 56.3882 81.5594 57.2002Z" fill="#0164BC"/>
<path d="M49.2199 76.3234C46.6159 77.6394 46.2519 80.9714 48.5479 82.7914C50.7599 84.5554 54.0639 83.2394 54.6799 80.3834C54.9879 78.8994 53.9799 77.0514 52.5239 76.3794C51.0399 75.7074 50.4519 75.6794 49.2199 76.3234ZM52.7479 77.8914C54.5959 79.7394 53.4199 82.5114 50.8159 82.5394C48.0439 82.5394 47.0079 78.7034 49.4439 77.3874C50.7039 76.6874 51.6839 76.8274 52.7479 77.8914Z" fill="#0164BC"/>
</svg>
