<svg width="30" height="30" viewBox="0 0 30 30" fill="none" xmlns="http://www.w3.org/2000/svg">
<path fill-rule="evenodd" clip-rule="evenodd" d="M13.125 22.5C7.94733 22.5 3.75 18.3027 3.75 13.125C3.75 7.94733 7.94733 3.75 13.125 3.75C18.3027 3.75 22.5 7.94733 22.5 13.125C22.5 15.2562 21.7889 17.2213 20.5909 18.796L26.0525 24.1036L24.3102 25.8964L18.8266 20.5675C17.2469 21.7796 15.2701 22.5 13.125 22.5ZM20 13.125C20 16.922 16.922 20 13.125 20C9.32804 20 6.25 16.922 6.25 13.125C6.25 9.32804 9.32804 6.25 13.125 6.25C16.922 6.25 20 9.32804 20 13.125Z" fill="#0164BC"/>
</svg>
