<svg width="18" height="18" viewBox="0 0 18 18" fill="none" xmlns="http://www.w3.org/2000/svg">
<path d="M11.938 10.6195L6.733 13.222C6.74422 13.3131 6.75 13.4059 6.75 13.5C6.75 14.7426 5.74264 15.75 4.5 15.75C3.25736 15.75 2.25 14.7426 2.25 13.5C2.25 12.2574 3.25736 11.25 4.5 11.25C5.10668 11.25 5.65729 11.4901 6.06196 11.8805L11.267 9.27797C11.2558 9.18689 11.25 9.09412 11.25 9C11.25 8.90588 11.2558 8.81311 11.267 8.72203L6.06196 6.1195C5.65729 6.50989 5.10668 6.75 4.5 6.75C3.25736 6.75 2.25 5.74264 2.25 4.5C2.25 3.25736 3.25736 2.25 4.5 2.25C5.74264 2.25 6.75 3.25736 6.75 4.5C6.75 4.59412 6.74422 4.68689 6.733 4.77797L11.938 7.3805C12.3427 6.99011 12.8933 6.75 13.5 6.75C14.7426 6.75 15.75 7.75736 15.75 9C15.75 10.2426 14.7426 11.25 13.5 11.25C12.8933 11.25 12.3427 11.0099 11.938 10.6195Z" fill="#0164BC"/>
</svg>
